<svg width="98" height="30" viewBox="0 0 98 30" fill="none" xmlns="http://www.w3.org/2000/svg">
<path d="M17.5 25C16.125 25 14.9479 24.5104 13.9688 23.5313C12.9896 22.5521 12.5 21.375 12.5 20C12.5 18.625 12.9896 17.4479 13.9688 16.4688C14.9479 15.4896 16.125 15 17.5 15C17.9792 15 18.4221 15.0575 18.8288 15.1725C19.2354 15.2875 19.6258 15.4592 20 15.6875V5H27.5V8.75H22.5V20C22.5 21.375 22.0104 22.5521 21.0312 23.5313C20.0521 24.5104 18.875 25 17.5 25ZM2.5 20C2.5 17.9375 2.89583 15.9946 3.6875 14.1713C4.47917 12.3479 5.55208 10.7596 6.90625 9.40625C8.26042 8.05292 9.84917 6.98 11.6725 6.1875C13.4958 5.395 15.4383 4.99917 17.5 5V7.5C15.7917 7.5 14.1771 7.82833 12.6562 8.485C11.1354 9.14167 9.8075 10.0375 8.6725 11.1725C7.5375 12.3075 6.64167 13.63 5.985 15.14C5.32833 16.65 5 18.27 5 20H2.5ZM7.5 20C7.5 18.625 7.76583 17.3279 8.2975 16.1088C8.82917 14.8896 9.54792 13.8271 10.4537 12.9213C11.3596 12.0154 12.4167 11.3021 13.625 10.7813C14.8333 10.2604 16.125 10 17.5 10V12.5C15.4167 12.5 13.6458 13.2292 12.1875 14.6875C10.7292 16.1458 10 17.9167 10 20H7.5Z" fill="#FFD621"/>
<path d="M34.5879 23V22.002C35.2077 21.8743 35.6725 21.7376 35.9824 21.5918C36.3014 21.4368 36.4609 21.2956 36.4609 21.168V7.16797C36.1146 7.21354 35.7819 7.25911 35.4629 7.30469C35.153 7.35026 34.8613 7.39583 34.5879 7.44141L34.4102 6.18359C34.9023 6.0651 35.4492 5.95573 36.0508 5.85547C36.6523 5.75521 37.2767 5.66862 37.9238 5.5957C38.5801 5.52279 39.2363 5.4681 39.8926 5.43164C40.5579 5.38607 41.1914 5.36328 41.793 5.36328C42.8503 5.36328 43.8118 5.4681 44.6777 5.67773C45.5527 5.88737 46.3001 6.19727 46.9199 6.60742C47.5397 7.01758 48.0182 7.52344 48.3555 8.125C48.6927 8.72656 48.8613 9.41927 48.8613 10.2031C48.8613 10.832 48.7747 11.4108 48.6016 11.9395C48.4284 12.4681 48.1914 12.9421 47.8906 13.3613C47.599 13.7806 47.2572 14.1497 46.8652 14.4688C46.4824 14.7878 46.0723 15.0521 45.6348 15.2617C45.2064 15.4714 44.7689 15.6309 44.3223 15.7402C43.8848 15.8405 43.4655 15.8906 43.0645 15.8906C42.6452 15.8906 42.235 15.8587 41.834 15.7949C41.4329 15.722 41.0775 15.6172 40.7676 15.4805L40.3438 14.0449C40.7174 14.2181 41.0456 14.332 41.3281 14.3867C41.6198 14.4323 41.9251 14.4551 42.2441 14.4551C42.6361 14.4551 43.0234 14.3867 43.4062 14.25C43.7891 14.1042 44.1263 13.8809 44.418 13.5801C44.7188 13.2793 44.9603 12.8965 45.1426 12.4316C45.3249 11.9668 45.416 11.4108 45.416 10.7637C45.416 10.1165 45.3066 9.54688 45.0879 9.05469C44.8783 8.5625 44.5775 8.15234 44.1855 7.82422C43.8027 7.48698 43.3424 7.23633 42.8047 7.07227C42.2669 6.89909 41.6699 6.8125 41.0137 6.8125C40.8314 6.8125 40.6445 6.81706 40.4531 6.82617C40.2708 6.82617 40.0794 6.83073 39.8789 6.83984V21.168C39.8789 21.2227 39.9062 21.2819 39.9609 21.3457C40.0247 21.4095 40.1387 21.4779 40.3027 21.5508C40.4759 21.6237 40.7129 21.6966 41.0137 21.7695C41.3145 21.8424 41.7018 21.9199 42.1758 22.002V23H34.5879ZM62.8203 14.4004C62.8203 13.4616 62.7064 12.5547 62.4785 11.6797C62.2598 10.8047 61.9453 10.0299 61.5352 9.35547C61.125 8.68099 60.6328 8.14323 60.0586 7.74219C59.4844 7.34115 58.8464 7.14062 58.1445 7.14062C57.4883 7.14062 56.9049 7.30469 56.3945 7.63281C55.8932 7.95182 55.4694 8.41667 55.123 9.02734C54.7858 9.62891 54.5306 10.3717 54.3574 11.2559C54.1842 12.1309 54.0977 13.1243 54.0977 14.2363C54.0977 15.2572 54.2161 16.2142 54.4531 17.1074C54.6992 18.0007 55.0273 18.7799 55.4375 19.4453C55.8568 20.1016 56.3398 20.6211 56.8867 21.0039C57.4427 21.3776 58.0352 21.5645 58.6641 21.5645C59.2656 21.5645 59.8171 21.4186 60.3184 21.127C60.8288 20.8353 61.2663 20.3932 61.6309 19.8008C62.0046 19.1992 62.2962 18.4518 62.5059 17.5586C62.7155 16.6562 62.8203 15.6035 62.8203 14.4004ZM66.2656 14.1543C66.2656 14.9837 66.1654 15.7858 65.9648 16.5605C65.7643 17.3353 65.4818 18.069 65.1172 18.7617C64.7617 19.4453 64.3333 20.0742 63.832 20.6484C63.3307 21.2135 62.7747 21.7012 62.1641 22.1113C61.5534 22.5215 60.9017 22.8405 60.209 23.0684C59.5163 23.2962 58.8008 23.4102 58.0625 23.4102C56.9141 23.4102 55.8796 23.1686 54.959 22.6855C54.0384 22.2025 53.2591 21.5553 52.6211 20.7441C51.9831 19.9329 51.4909 18.9987 51.1445 17.9414C50.8073 16.8841 50.6387 15.7812 50.6387 14.6328C50.6387 13.3932 50.8392 12.2129 51.2402 11.0918C51.6504 9.9707 52.2155 8.98633 52.9355 8.13867C53.6647 7.29102 54.5306 6.61654 55.5332 6.11523C56.5449 5.61393 57.6523 5.36328 58.8555 5.36328C60.0586 5.36328 61.1204 5.61393 62.041 6.11523C62.9616 6.60742 63.7363 7.26367 64.3652 8.08398C64.9941 8.9043 65.4681 9.8431 65.7871 10.9004C66.1061 11.9577 66.2656 13.0423 66.2656 14.1543ZM67.8926 23V22.002C68.5124 21.8743 68.9772 21.7376 69.2871 21.5918C69.6061 21.4368 69.7656 21.2956 69.7656 21.168V7.16797C69.4193 7.21354 69.0866 7.25911 68.7676 7.30469C68.4577 7.35026 68.166 7.39583 67.8926 7.44141L67.7148 6.18359C68.207 6.0651 68.7539 5.95573 69.3555 5.85547C69.957 5.75521 70.5814 5.66862 71.2285 5.5957C71.8848 5.52279 72.541 5.4681 73.1973 5.43164C73.8626 5.38607 74.4961 5.36328 75.0977 5.36328C76.1549 5.36328 77.1165 5.4681 77.9824 5.67773C78.8574 5.88737 79.6048 6.19727 80.2246 6.60742C80.8444 7.01758 81.3229 7.52344 81.6602 8.125C81.9974 8.72656 82.166 9.41927 82.166 10.2031C82.166 10.832 82.0794 11.4108 81.9062 11.9395C81.7331 12.4681 81.4961 12.9421 81.1953 13.3613C80.9036 13.7806 80.5618 14.1497 80.1699 14.4688C79.7871 14.7878 79.377 15.0521 78.9395 15.2617C78.5111 15.4714 78.0736 15.6309 77.627 15.7402C77.1895 15.8405 76.7702 15.8906 76.3691 15.8906C75.9499 15.8906 75.5397 15.8587 75.1387 15.7949C74.7376 15.722 74.3822 15.6172 74.0723 15.4805L73.6484 14.0449C74.0221 14.2181 74.3503 14.332 74.6328 14.3867C74.9245 14.4323 75.2298 14.4551 75.5488 14.4551C75.9408 14.4551 76.3281 14.3867 76.7109 14.25C77.0938 14.1042 77.431 13.8809 77.7227 13.5801C78.0234 13.2793 78.265 12.8965 78.4473 12.4316C78.6296 11.9668 78.7207 11.4108 78.7207 10.7637C78.7207 10.1165 78.6113 9.54688 78.3926 9.05469C78.1829 8.5625 77.8822 8.15234 77.4902 7.82422C77.1074 7.48698 76.6471 7.23633 76.1094 7.07227C75.5716 6.89909 74.9746 6.8125 74.3184 6.8125C74.1361 6.8125 73.9492 6.81706 73.7578 6.82617C73.5755 6.82617 73.3841 6.83073 73.1836 6.83984V21.168C73.1836 21.2227 73.2109 21.2819 73.2656 21.3457C73.3294 21.4095 73.4434 21.4779 73.6074 21.5508C73.7806 21.6237 74.0176 21.6966 74.3184 21.7695C74.6191 21.8424 75.0065 21.9199 75.4805 22.002V23H67.8926ZM96.4258 17.8457C96.4258 18.2559 96.362 18.6751 96.2344 19.1035C96.1159 19.5319 95.9336 19.9557 95.6875 20.375C95.4414 20.7852 95.1315 21.1771 94.7578 21.5508C94.3841 21.9154 93.9421 22.2344 93.4316 22.5078C92.9303 22.7812 92.3607 23 91.7227 23.1641C91.0938 23.3281 90.3919 23.4102 89.6172 23.4102C89.2891 23.4102 88.9108 23.3783 88.4824 23.3145C88.0632 23.2507 87.6302 23.1595 87.1836 23.041C86.7461 22.9316 86.3132 22.7949 85.8848 22.6309C85.4655 22.4668 85.0964 22.2799 84.7773 22.0703C84.7318 22.0521 84.6953 21.9655 84.668 21.8105C84.6406 21.6465 84.6178 21.446 84.5996 21.209C84.5905 20.9629 84.5859 20.6895 84.5859 20.3887C84.5951 20.0788 84.6087 19.7689 84.627 19.459C84.6543 19.1491 84.6862 18.8438 84.7227 18.543C84.7682 18.2422 84.8229 17.9779 84.8867 17.75L85.8574 17.8184C86.0671 18.3561 86.3223 18.8483 86.623 19.2949C86.9238 19.7415 87.2611 20.1243 87.6348 20.4434C88.0085 20.7624 88.4095 21.013 88.8379 21.1953C89.2663 21.3685 89.7129 21.4551 90.1777 21.4551C90.5879 21.4551 90.9844 21.3958 91.3672 21.2773C91.75 21.1589 92.0872 20.9902 92.3789 20.7715C92.6706 20.5436 92.903 20.2656 93.0762 19.9375C93.2585 19.6003 93.3496 19.2129 93.3496 18.7754C93.3496 18.2194 93.2266 17.7409 92.9805 17.3398C92.7344 16.9297 92.4062 16.5697 91.9961 16.2598C91.5951 15.9408 91.1348 15.6536 90.6152 15.3984C90.1048 15.1432 89.5762 14.8926 89.0293 14.6465C88.4915 14.3913 87.9629 14.127 87.4434 13.8535C86.9329 13.571 86.4727 13.2474 86.0625 12.8828C85.6615 12.5091 85.3379 12.0807 85.0918 11.5977C84.8457 11.1146 84.7227 10.5404 84.7227 9.875C84.7227 9.44661 84.8411 8.97266 85.0781 8.45312C85.3242 7.92448 85.6979 7.43229 86.1992 6.97656C86.7096 6.52083 87.3613 6.13802 88.1543 5.82812C88.9473 5.51823 89.8952 5.36328 90.998 5.36328C91.4902 5.36328 91.9733 5.39518 92.4473 5.45898C92.9212 5.52279 93.3633 5.60938 93.7734 5.71875C94.1836 5.82812 94.5436 5.96029 94.8535 6.11523C95.1725 6.27018 95.4141 6.4388 95.5781 6.62109C95.6237 6.65755 95.6328 6.73958 95.6055 6.86719C95.5872 6.99479 95.5462 7.14518 95.4824 7.31836C95.4277 7.49154 95.3503 7.67839 95.25 7.87891C95.1589 8.07943 95.0632 8.27083 94.9629 8.45312C94.8626 8.63542 94.7624 8.79948 94.6621 8.94531C94.5618 9.09115 94.4753 9.19596 94.4023 9.25977L93.5 9.17773C93.2995 8.74935 93.0671 8.39388 92.8027 8.11133C92.5475 7.81966 92.2741 7.58724 91.9824 7.41406C91.6999 7.24089 91.4128 7.11784 91.1211 7.04492C90.8294 6.97201 90.556 6.93555 90.3008 6.93555C89.8451 6.93555 89.4531 6.99479 89.125 7.11328C88.806 7.23177 88.5417 7.39128 88.332 7.5918C88.1224 7.79232 87.9674 8.02018 87.8672 8.27539C87.776 8.52148 87.7305 8.77214 87.7305 9.02734C87.7305 9.45573 87.8535 9.83854 88.0996 10.1758C88.3548 10.5039 88.6829 10.8138 89.084 11.1055C89.4941 11.388 89.959 11.6569 90.4785 11.9121C90.998 12.1673 91.5312 12.4316 92.0781 12.7051C92.625 12.9785 93.1582 13.2747 93.6777 13.5938C94.1973 13.9128 94.6576 14.2728 95.0586 14.6738C95.4688 15.0749 95.7969 15.5352 96.043 16.0547C96.2982 16.5742 96.4258 17.1712 96.4258 17.8457Z" fill="black"/>
</svg>
