<svg width="98" height="30" viewBox="0 0 98 30" fill="none" xmlns="http://www.w3.org/2000/svg">
<path d="M17.5 25C16.125 25 14.9479 24.5104 13.9688 23.5313C12.9896 22.5521 12.5 21.375 12.5 20C12.5 18.625 12.9896 17.4479 13.9688 16.4688C14.9479 15.4896 16.125 15 17.5 15C17.9792 15 18.4221 15.0575 18.8288 15.1725C19.2354 15.2875 19.6258 15.4592 20 15.6875V5H27.5V8.75H22.5V20C22.5 21.375 22.0104 22.5521 21.0312 23.5313C20.0521 24.5104 18.875 25 17.5 25ZM2.5 20C2.5 17.9375 2.89583 15.9946 3.6875 14.1713C4.47917 12.3479 5.55208 10.7596 6.90625 9.40625C8.26042 8.05292 9.84917 6.98 11.6725 6.1875C13.4958 5.395 15.4383 4.99917 17.5 5V7.5C15.7917 7.5 14.1771 7.82833 12.6562 8.485C11.1354 9.14167 9.8075 10.0375 8.6725 11.1725C7.5375 12.3075 6.64167 13.63 5.985 15.14C5.32833 16.65 5 18.27 5 20H2.5ZM7.5 20C7.5 18.625 7.76583 17.3279 8.2975 16.1088C8.82917 14.8896 9.54792 13.8271 10.4537 12.9213C11.3596 12.0154 12.4167 11.3021 13.625 10.7813C14.8333 10.2604 16.125 10 17.5 10V12.5C15.4167 12.5 13.6458 13.2292 12.1875 14.6875C10.7292 16.1458 10 17.9167 10 20H7.5Z" fill="#FFD621"/>
<path d="M92.1323 20.7309V20.0807C92.4644 19.9975 92.7134 19.9084 92.8794 19.8134C93.0503 19.7125 93.1357 19.6204 93.1357 19.5373V10.7094C93.1357 10.6382 93.0552 10.5491 92.894 10.4422C92.7378 10.3353 92.4839 10.2403 92.1323 10.1571V9.50684H95.9775V10.1571C95.6455 10.2403 95.394 10.3323 95.2231 10.4333C95.0522 10.5342 94.9668 10.6263 94.9668 10.7094V19.5373C94.9668 19.6085 95.0474 19.6976 95.2085 19.8045C95.3696 19.9055 95.626 19.9975 95.9775 20.0807V20.7309H92.1323Z" fill="black"/>
<path d="M91.0703 17.3752C91.0703 17.6424 91.0361 17.9156 90.9678 18.1947C90.9043 18.4739 90.8066 18.75 90.6748 19.0232C90.543 19.2904 90.377 19.5458 90.1768 19.7893C89.9766 20.0268 89.7397 20.2347 89.4663 20.4128C89.1978 20.591 88.8926 20.7335 88.5508 20.8404C88.2139 20.9473 87.8379 21.0008 87.4229 21.0008C87.2471 21.0008 87.0444 20.98 86.8149 20.9384C86.5903 20.8968 86.3584 20.8375 86.1191 20.7603C85.8848 20.689 85.6528 20.5999 85.4233 20.493C85.1987 20.3861 85.001 20.2644 84.8301 20.1278C84.8057 20.1159 84.7861 20.0595 84.7715 19.9585C84.7568 19.8516 84.7446 19.721 84.7349 19.5666C84.73 19.4062 84.7275 19.2281 84.7275 19.0321C84.7324 18.8302 84.7397 18.6283 84.7495 18.4264C84.7642 18.2244 84.7812 18.0255 84.8008 17.8295C84.8252 17.6335 84.8545 17.4613 84.8887 17.3129L85.4087 17.3574C85.521 17.7078 85.6577 18.0285 85.8188 18.3195C85.98 18.6105 86.1606 18.8599 86.3608 19.0677C86.561 19.2756 86.7759 19.4389 87.0054 19.5577C87.2349 19.6705 87.4741 19.7269 87.7231 19.7269C87.9429 19.7269 88.1553 19.6883 88.3604 19.6111C88.5654 19.5339 88.7461 19.4241 88.9023 19.2815C89.0586 19.1331 89.1831 18.9519 89.2759 18.7381C89.3735 18.5184 89.4224 18.266 89.4224 17.981C89.4224 17.6187 89.3564 17.3069 89.2246 17.0456C89.0928 16.7784 88.917 16.5438 88.6973 16.3419C88.4824 16.134 88.2358 15.947 87.9575 15.7807C87.6841 15.6144 87.4009 15.4511 87.1079 15.2907C86.8198 15.1244 86.5366 14.9522 86.2583 14.7741C85.9849 14.59 85.7383 14.3791 85.5186 14.1416C85.3037 13.8981 85.1304 13.619 84.9985 13.3042C84.8667 12.9895 84.8008 12.6154 84.8008 12.1818C84.8008 11.9027 84.8643 11.5939 84.9912 11.2554C85.123 10.911 85.3232 10.5903 85.5918 10.2933C85.8652 9.9964 86.2144 9.74698 86.6392 9.54506C87.064 9.34315 87.5718 9.24219 88.1626 9.24219C88.4263 9.24219 88.6851 9.26297 88.939 9.30454C89.1929 9.34611 89.4297 9.40253 89.6494 9.4738C89.8691 9.54506 90.062 9.63117 90.228 9.73213C90.3989 9.83309 90.5283 9.94295 90.6162 10.0617C90.6406 10.0855 90.6455 10.1389 90.6309 10.2221C90.6211 10.3052 90.5991 10.4032 90.5649 10.516C90.5356 10.6289 90.4941 10.7506 90.4404 10.8813C90.3916 11.0119 90.3403 11.1366 90.2866 11.2554C90.2329 11.3742 90.1792 11.4811 90.1255 11.5761C90.0718 11.6711 90.0254 11.7394 89.9863 11.781L89.5029 11.7275C89.3955 11.4484 89.271 11.2168 89.1294 11.0327C88.9927 10.8427 88.8462 10.6912 88.6899 10.5784C88.5386 10.4656 88.3848 10.3854 88.2285 10.3379C88.0723 10.2904 87.9258 10.2666 87.7891 10.2666C87.5449 10.2666 87.335 10.3052 87.1592 10.3824C86.9883 10.4596 86.8467 10.5635 86.7344 10.6942C86.6221 10.8248 86.5391 10.9733 86.4854 11.1396C86.4365 11.2999 86.4121 11.4633 86.4121 11.6295C86.4121 11.9087 86.478 12.1581 86.6099 12.3778C86.7466 12.5916 86.9224 12.7935 87.1372 12.9836C87.3569 13.1677 87.606 13.3428 87.8843 13.5091C88.1626 13.6754 88.4482 13.8476 88.7412 14.0258C89.0342 14.204 89.3198 14.397 89.5981 14.6048C89.8765 14.8127 90.123 15.0472 90.3379 15.3085C90.5576 15.5698 90.7334 15.8698 90.8652 16.2083C91.002 16.5468 91.0703 16.9357 91.0703 17.3752Z" fill="black"/>
<path d="M79.5347 20.7309V20.0807C79.8667 19.9975 80.1157 19.9084 80.2817 19.8134C80.4526 19.7125 80.5381 19.6204 80.5381 19.5373V10.7094C80.5381 10.6382 80.4575 10.5491 80.2964 10.4422C80.1401 10.3353 79.8862 10.2403 79.5347 10.1571V9.50684H83.3799V10.1571C83.0479 10.2403 82.7964 10.3323 82.6255 10.4333C82.4546 10.5342 82.3691 10.6263 82.3691 10.7094V19.5373C82.3691 19.6085 82.4497 19.6976 82.6108 19.8045C82.772 19.9055 83.0283 19.9975 83.3799 20.0807V20.7309H79.5347Z" fill="black"/>
<path d="M76.6709 15.1304C76.6709 14.5187 76.6099 13.9278 76.4878 13.3577C76.3706 12.7876 76.2021 12.2828 75.9824 11.8433C75.7627 11.4039 75.499 11.0535 75.1914 10.7922C74.8838 10.5309 74.542 10.4002 74.166 10.4002C73.8145 10.4002 73.502 10.5071 73.2285 10.7209C72.96 10.9288 72.7329 11.2316 72.5474 11.6295C72.3667 12.0215 72.23 12.5055 72.1372 13.0815C72.0444 13.6517 71.998 14.299 71.998 15.0235C71.998 15.6886 72.0615 16.3122 72.1885 16.8942C72.3203 17.4762 72.4961 17.9839 72.7158 18.4174C72.9404 18.845 73.1992 19.1835 73.4922 19.433C73.79 19.6764 74.1074 19.7982 74.4443 19.7982C74.7666 19.7982 75.062 19.7032 75.3306 19.5131C75.604 19.3231 75.8384 19.0351 76.0337 18.6491C76.2339 18.2571 76.3901 17.7701 76.5024 17.1881C76.6147 16.6002 76.6709 15.9143 76.6709 15.1304ZM78.5166 14.97C78.5166 15.5105 78.4629 16.0331 78.3555 16.5379C78.248 17.0426 78.0967 17.5207 77.9014 17.972C77.7109 18.4174 77.4814 18.8272 77.2129 19.2014C76.9443 19.5696 76.6465 19.8873 76.3193 20.1545C75.9922 20.4218 75.6431 20.6296 75.272 20.7781C74.9009 20.9265 74.5176 21.0008 74.1221 21.0008C73.5068 21.0008 72.9526 20.8434 72.4595 20.5286C71.9663 20.2139 71.5488 19.7923 71.207 19.2637C70.8652 18.7352 70.6016 18.1265 70.416 17.4376C70.2354 16.7487 70.145 16.0301 70.145 15.2818C70.145 14.4742 70.2524 13.7051 70.4673 12.9746C70.687 12.2442 70.9897 11.6028 71.3755 11.0505C71.7661 10.4982 72.23 10.0588 72.7671 9.73213C73.3091 9.4055 73.9023 9.24219 74.5469 9.24219C75.1914 9.24219 75.7603 9.4055 76.2534 9.73213C76.7466 10.0528 77.1616 10.4804 77.4985 11.0149C77.8354 11.5494 78.0894 12.161 78.2603 12.8499C78.4312 13.5388 78.5166 14.2455 78.5166 14.97Z" fill="black"/>
<path d="M60.0962 20.7309V20.0807C60.4526 20.0272 60.709 19.9441 60.8652 19.8312C61.0215 19.7184 61.0996 19.6204 61.0996 19.5373V10.8074C60.7822 10.4451 60.4478 10.2284 60.0962 10.1571V9.50684H62.1396C62.2129 9.50684 62.2715 9.51574 62.3154 9.53356C62.3643 9.54544 62.4131 9.57513 62.4619 9.62264C62.5107 9.67015 62.562 9.74141 62.6157 9.83643C62.6743 9.92551 62.75 10.0473 62.8428 10.2017L67.3252 17.7557V10.7094C67.3252 10.6738 67.3081 10.6322 67.2739 10.5847C67.2446 10.5313 67.1909 10.4808 67.1128 10.4333C67.0396 10.3798 66.937 10.3293 66.8052 10.2818C66.6782 10.2343 66.5171 10.1928 66.3218 10.1571V9.50684H69.4346V10.1571C69.083 10.2165 68.8267 10.3026 68.6655 10.4155C68.5044 10.5283 68.4238 10.6263 68.4238 10.7094V20.9982C67.9551 20.9507 67.5791 20.8408 67.2959 20.6686C67.0127 20.4904 66.8052 20.2915 66.6733 20.0717L62.1982 12.5356V19.5373C62.1982 19.5729 62.2153 19.6174 62.2495 19.6709C62.2837 19.7184 62.3398 19.7689 62.418 19.8223C62.501 19.8698 62.606 19.9173 62.7329 19.9649C62.8599 20.0124 63.0186 20.051 63.209 20.0807V20.7309H60.0962Z" fill="black"/>
<path d="M53.2773 20.7309V20.0807C53.502 20.0272 53.6875 19.9708 53.834 19.9114C53.9805 19.852 54.0977 19.7956 54.1855 19.7421C54.2734 19.6828 54.3345 19.6293 54.3687 19.5818C54.4028 19.5284 54.4199 19.4808 54.4199 19.4393V10.5758H52.5596C52.4863 10.5758 52.4155 10.6085 52.3472 10.6738C52.2837 10.7332 52.2178 10.8371 52.1494 10.9856C52.0811 11.134 52.0054 11.327 51.9224 11.5646C51.8394 11.8021 51.7441 12.0931 51.6367 12.4376L51.1021 12.1971C51.1118 12.0248 51.1265 11.817 51.146 11.5735C51.1704 11.33 51.1973 11.0806 51.2266 10.8252C51.2559 10.5699 51.2852 10.3264 51.3145 10.0948C51.3438 9.85722 51.3706 9.66124 51.395 9.50684H59.2319L59.5103 9.79189C59.5054 9.9463 59.4932 10.1304 59.4736 10.3442C59.459 10.558 59.437 10.7837 59.4077 11.0212C59.3833 11.2587 59.354 11.4963 59.3198 11.7338C59.2905 11.9654 59.2612 12.1733 59.2319 12.3574H58.6826C58.6338 12.0842 58.5923 11.8378 58.5581 11.618C58.5288 11.3924 58.4946 11.2053 58.4556 11.0568C58.4165 10.9024 58.3652 10.7837 58.3018 10.7005C58.2432 10.6174 58.1626 10.5758 58.0601 10.5758H56.251V19.4393C56.251 19.4749 56.2681 19.5194 56.3022 19.5729C56.3364 19.6204 56.3975 19.6739 56.4854 19.7332C56.5732 19.7926 56.6904 19.852 56.8369 19.9114C56.9883 19.9708 57.1763 20.0272 57.4009 20.0807V20.7309H53.2773Z" fill="black"/>
<path d="M50.897 18.0229C50.8774 18.2783 50.853 18.5485 50.8237 18.8335C50.7993 19.1126 50.7725 19.3799 50.7432 19.6353C50.7188 19.8847 50.6919 20.1074 50.6626 20.3034C50.6382 20.4993 50.6162 20.6419 50.5967 20.7309H43.7485V20.0807C44.0806 19.9975 44.3296 19.9084 44.4956 19.8134C44.6665 19.7125 44.752 19.6204 44.752 19.5373V10.7094C44.752 10.6382 44.6714 10.5491 44.5103 10.4422C44.354 10.3353 44.1001 10.2403 43.7485 10.1571V9.50684H47.5938V10.1571C47.2617 10.2403 47.0103 10.3323 46.8394 10.4333C46.6685 10.5342 46.583 10.6263 46.583 10.7094V19.0028C46.583 19.1097 46.6025 19.2047 46.6416 19.2878C46.6855 19.365 46.7588 19.4333 46.8613 19.4927C46.9639 19.5462 47.103 19.5877 47.2788 19.6174C47.4546 19.6471 47.6768 19.662 47.9453 19.662H48.7729C48.9976 19.662 49.1855 19.6293 49.3369 19.564C49.4932 19.4987 49.6299 19.3947 49.7471 19.2522C49.8643 19.1037 49.9692 18.9107 50.062 18.6732C50.1597 18.4356 50.2598 18.1417 50.3623 17.7913L50.897 18.0229Z" fill="black"/>
<path d="M39.4712 15.8325L38.2627 11.6902L37.1641 15.8325H39.4712ZM36.8711 16.9014L36.168 19.4758C36.1191 19.6599 36.1777 19.7935 36.3438 19.8767C36.5146 19.9598 36.8003 20.0281 37.2007 20.0816V20.7319H34V20.0816C34.332 20.0103 34.5859 19.9361 34.7617 19.8589C34.9424 19.7817 35.0571 19.654 35.106 19.4758L37.6621 9.97988C37.7793 9.86111 37.9038 9.75124 38.0356 9.65029C38.1724 9.54933 38.3115 9.46025 38.4531 9.38304C38.5996 9.2999 38.7437 9.22864 38.8853 9.16925C39.0269 9.10393 39.1611 9.04751 39.2881 9L42.3643 19.4758C42.3887 19.559 42.4204 19.6332 42.4595 19.6985C42.4985 19.7639 42.5522 19.8203 42.6206 19.8678C42.689 19.9153 42.7744 19.9569 42.877 19.9925C42.9844 20.0281 43.1162 20.0578 43.2725 20.0816V20.7319H39.6323V20.0816C40.0132 20.0519 40.2695 19.9925 40.4014 19.9034C40.5381 19.8143 40.5796 19.6718 40.5259 19.4758L39.7788 16.9014H36.8711Z" fill="black"/>
</svg>
