<svg width="47" height="29" viewBox="0 0 47 29" fill="none" xmlns="http://www.w3.org/2000/svg">
<g id="Mastercard">
<path id="Left" fill-rule="evenodd" clip-rule="evenodd" d="M23.3736 25.0607C20.9011 27.14 17.6937 28.3952 14.189 28.3952C6.3688 28.3952 0.0292969 22.1458 0.0292969 14.4368C0.0292969 6.72787 6.3688 0.478516 14.189 0.478516C17.6937 0.478516 20.9011 1.73372 23.3736 3.81298C25.8462 1.73372 29.0535 0.478516 32.5583 0.478516C40.3785 0.478516 46.718 6.72787 46.718 14.4368C46.718 22.1458 40.3785 28.3952 32.5583 28.3952C29.0535 28.3952 25.8462 27.14 23.3736 25.0607Z" fill="#ED0006"/>
<path id="Right" fill-rule="evenodd" clip-rule="evenodd" d="M23.3735 25.0607C26.4181 22.5005 28.3486 18.6909 28.3486 14.4368C28.3486 10.1828 26.4181 6.37319 23.3735 3.81297C25.8461 1.73372 29.0534 0.478516 32.5582 0.478516C40.3784 0.478516 46.7179 6.72787 46.7179 14.4368C46.7179 22.1458 40.3784 28.3952 32.5582 28.3952C29.0534 28.3952 25.8461 27.14 23.3735 25.0607Z" fill="#F9A000"/>
<path id="Middle" fill-rule="evenodd" clip-rule="evenodd" d="M23.3736 25.0602C26.4181 22.4999 28.3486 18.6904 28.3486 14.4363C28.3486 10.1823 26.4181 6.37271 23.3736 3.8125C20.3292 6.37271 18.3987 10.1823 18.3987 14.4363C18.3987 18.6904 20.3292 22.4999 23.3736 25.0602Z" fill="#FF5E00"/>
</g>
</svg>
