<svg width="72" height="50" viewBox="0 0 72 50" fill="none" xmlns="http://www.w3.org/2000/svg">
<g id="Payment method icon">
<rect x="1" y="0.5" width="70" height="49" rx="3.5" fill="white"/>
<rect x="1" y="0.5" width="70" height="49" rx="3.5" stroke="#F2F4F7"/>
<path id="visa-logo" fill-rule="evenodd" clip-rule="evenodd" d="M22.949 33.038H18.6477L15.4223 20.4008C15.2693 19.8195 14.9442 19.3056 14.4661 19.0633C13.2728 18.4546 11.9579 17.9702 10.5234 17.7259V17.2394H17.4524C18.4087 17.2394 19.1259 17.9702 19.2454 18.819L20.9189 27.9347L25.2181 17.2394H29.3997L22.949 33.038ZM31.7905 33.038H27.7283L31.0733 17.2394H35.1354L31.7905 33.038ZM40.3908 21.6161C40.5104 20.7652 41.2276 20.2786 42.0644 20.2786C43.3793 20.1565 44.8116 20.4008 46.007 21.0074L46.7242 17.6059C45.5288 17.1193 44.2139 16.875 43.0206 16.875C39.078 16.875 36.2092 19.0633 36.2092 22.1005C36.2092 24.411 38.2413 25.6242 39.6757 26.355C41.2276 27.0838 41.8253 27.5703 41.7057 28.2991C41.7057 29.3922 40.5104 29.8787 39.3171 29.8787C37.8827 29.8787 36.4482 29.5143 35.1354 28.9056L34.4182 32.3093C35.8526 32.9159 37.4045 33.1602 38.839 33.1602C43.2597 33.2802 46.007 31.094 46.007 27.8125C46.007 23.6802 40.3908 23.4379 40.3908 21.6161ZM60.2234 33.038L56.998 17.2394H53.5336C52.8164 17.2394 52.0991 17.7259 51.8601 18.4546L45.8874 33.038H50.0691L50.9038 30.7296H56.0418L56.5199 33.038H60.2234ZM54.1313 21.4939L55.3245 27.4482H51.9796L54.1313 21.4939Z" fill="#172B85"/>
</g>
</svg>
